<svg
                width="48"
                height="45"
                viewBox="0 0 48 45"
                fill="none"
                xmlns="http://www.w3.org/2000/svg"
              >
                <path
                  d="M47.1687 10.3486C45.854 9.03754 43.1634 6.78633 39.6299 6.70348C35.376 6.59903 32.3755 9.67508 29.1842 12.9673C24.3576 17.9127 20.7773 24.3782 17.2978 30.66C16.7974 31.5674 16.2379 32.441 15.6229 33.275C14.9024 34.2975 14.0792 35.2437 13.1664 36.0989C10.5622 38.2601 7.48973 38.8796 5.28174 39.0669C7.30209 40.8805 9.62763 42.3219 12.1506 43.3244C16.575 45.1264 21.4633 45.4499 26.0865 44.2465C27.7362 43.7963 31.6335 42.6869 34.9869 39.3263C34.9869 39.3263 40.8509 33.4587 41.4452 20.344C41.4452 20.272 41.4452 20.1964 41.4452 20.0703C41.5497 18.1685 41.7478 14.6674 43.9306 12.3513C44.8203 11.4171 45.9354 10.7274 47.1687 10.3486Z"
                  fill="url(#paint0_linear_120_611)"
                />
                <path
                  d="M2.5155 0C4.31129 1.57383 6.23947 2.98984 8.27861 4.23228C13.2673 7.28313 15.8571 7.37678 22.2722 10.0278C29.0474 12.8265 32.4368 14.2241 35.2752 17.6495C36.3557 18.9678 39.4102 22.7571 39.4498 28.3077C39.4532 31.419 38.5509 34.4641 36.8528 37.0712C32.0622 44.3939 22.9169 44.873 21.5013 44.9666C18.0168 45.1632 14.5382 44.4886 11.3799 43.0036C13.6637 43.8222 16.1327 43.977 18.5009 43.4502C19.7436 43.1513 21.7859 42.6038 22.7728 40.8424C23.8966 38.8361 23.0178 36.5669 22.8449 36.1167C22.6143 35.5151 22.1245 34.5642 20.6117 33.1487C19.586 32.2162 18.4699 31.3885 17.2799 30.6777C16.9593 30.476 16.9449 30.476 15.695 29.7412C15.5113 29.6368 13.3141 28.3437 11.6284 27.3279C9.70138 26.1645 8.74686 25.5846 8.12733 25.1668C6.6781 24.2326 5.34765 23.1259 4.16519 21.871C3.17384 20.8005 2.32624 19.6054 1.64383 18.3159C0.163436 15.4343 0.0553783 12.7473 0.00495108 11.0183C-0.0738167 7.19532 0.788326 3.41154 2.5155 0Z"
                  fill="url(#paint1_linear_120_611)"
                />
                <path
                  d="M2.51554 0C0.791427 3.37227 -0.0675662 7.12015 0.0157907 10.9067C0.0698198 12.7076 0.188684 15.2578 1.55382 18.0781C3.68977 22.4761 7.60148 24.8642 10.2921 26.5067C10.9549 26.9101 14.0526 28.7579 16.718 30.3283L17.2799 30.6597C17.893 29.0944 18.1928 27.4239 18.1624 25.7431C18.1075 23.9745 17.701 22.2345 16.9665 20.6247C15.6014 17.6243 13.9877 17.1308 8.98103 12.5131C4.08599 8.00712 3.16029 6.21695 2.71725 4.56006C2.3333 3.07065 2.26459 1.51749 2.51554 0Z"
                  fill="#8B8EFB"
                  fill-opacity="0.7"
                />
                <defs>
                  <linearGradient
                    id="paint0_linear_120_611"
                    x1="12.2011"
                    y1="46.0043"
                    x2="47.5145"
                    y2="10.6944"
                    gradientUnits="userSpaceOnUse"
                  >
                    <stop stop-color="#6059C9" />
                    <stop offset="0.99" stop-color="#8B8EFB" />
                  </linearGradient>
                  <linearGradient
                    id="paint1_linear_120_611"
                    x1="-2.21024"
                    y1="4.72935"
                    x2="33.7155"
                    y2="40.6551"
                    gradientUnits="userSpaceOnUse"
                  >
                    <stop stop-color="#6059C9" />
                    <stop offset="0.31" stop-color="#5E57C6" />
                    <stop offset="0.52" stop-color="#5950BD" />
                    <stop offset="0.69" stop-color="#4F45AE" />
                    <stop offset="0.85" stop-color="#423599" />
                    <stop offset="0.99" stop-color="#322380" />
                  </linearGradient>
                </defs>
              </svg>