<svg width="25" height="25" viewBox="0 0 29 29" fill="none" xmlns="http://www.w3.org/2000/svg">
<g clip-path="url(#clip0_409_413)">
<path d="M14.5 29C22.5081 29 29 22.5081 29 14.5C29 6.49187 22.5081 0 14.5 0C6.49187 0 0 6.49187 0 14.5C0 22.5081 6.49187 29 14.5 29Z" fill="#F0F0F0"/>
<path d="M14.4997 0C8.75101 0 3.78385 3.34548 1.43848 8.19567H27.5608C25.2155 3.34548 20.2483 0 14.4997 0Z" fill="#FF9811"/>
<path d="M14.4997 29.0001C20.2483 29.0001 25.2155 25.6546 27.5609 20.8044H1.43848C3.78385 25.6546 8.75101 29.0001 14.4997 29.0001Z" fill="#6DA544"/>
<path d="M14.5005 19.5434C17.2859 19.5434 19.5439 17.2854 19.5439 14.5C19.5439 11.7146 17.2859 9.45654 14.5005 9.45654C11.7151 9.45654 9.45703 11.7146 9.45703 14.5C9.45703 17.2854 11.7151 19.5434 14.5005 19.5434Z" fill="#0052B4"/>
<path d="M14.4998 17.6522C16.2407 17.6522 17.652 16.241 17.652 14.5001C17.652 12.7592 16.2407 11.3479 14.4998 11.3479C12.7589 11.3479 11.3477 12.7592 11.3477 14.5001C11.3477 16.241 12.7589 17.6522 14.4998 17.6522Z" fill="#F0F0F0"/>
<path d="M14.5004 10.6104L15.4729 12.8158L17.869 12.5552L16.4453 14.5001L17.869 16.445L15.4729 16.1844L14.5004 18.3898L13.528 16.1844L11.1318 16.4449L12.5556 14.5001L11.1318 12.5552L13.528 12.8158L14.5004 10.6104Z" fill="#0052B4"/>
</g>
<defs>
<clipPath id="clip0_409_413">
<rect width="29" height="29" fill="white"/>
</clipPath>
</defs>
</svg>
