<svg width="200" height="45" viewBox="0 0 200 45" fill="none" xmlns="http://www.w3.org/2000/svg">
<path d="M47.1687 10.3487C45.854 9.03757 43.1634 6.78636 39.6299 6.70351C35.376 6.59906 32.3755 9.67512 29.1842 12.9673C24.3576 17.9128 20.7773 24.3782 17.2978 30.66C16.7974 31.5675 16.2379 32.441 15.6229 33.275C14.9024 34.2975 14.0792 35.2437 13.1664 36.099C10.5622 38.2601 7.48973 38.8797 5.28174 39.067C7.30209 40.8805 9.62763 42.3219 12.1506 43.3245C16.575 45.1265 21.4633 45.4499 26.0866 44.2466C27.7362 43.7963 31.6335 42.6869 34.9869 39.3263C34.9869 39.3263 40.8509 33.4587 41.4452 20.3441C41.4452 20.272 41.4452 20.1964 41.4452 20.0703C41.5497 18.1685 41.7478 14.6674 43.9306 12.3514C44.8203 11.4171 45.9354 10.7274 47.1687 10.3487Z" fill="url(#paint0_linear_453_69)"/>
<path d="M57.52 12.058L57.702 11.876H60.432V14.326C60.432 14.718 60.4367 15.04 60.446 15.292C60.4553 15.5347 60.46 15.8473 60.46 16.23V27.136C60.46 27.388 60.4553 27.6213 60.446 27.836C60.4367 28.0413 60.432 28.2793 60.432 28.55V31.028H59.228C58.7053 31.028 58.29 30.8647 57.982 30.538C57.674 30.2113 57.52 29.7587 57.52 29.18V12.058ZM67.46 20.108C67.5067 20.2947 67.5393 20.5093 67.558 20.752C67.586 20.9853 67.6 21.1813 67.6 21.34C67.6 21.508 67.586 21.7087 67.558 21.942C67.5393 22.166 67.5067 22.3807 67.46 22.586H62.196C61.9813 22.586 61.7107 22.586 61.384 22.586C61.0573 22.5767 60.7167 22.572 60.362 22.572C60.0167 22.5627 59.704 22.5533 59.424 22.544V20.136C59.704 20.136 60.0167 20.136 60.362 20.136C60.7167 20.1267 61.0573 20.122 61.384 20.122C61.7107 20.1127 61.9813 20.108 62.196 20.108H67.46ZM68.972 11.876C69.0187 12.1 69.0467 12.3147 69.056 12.52C69.0653 12.716 69.07 12.898 69.07 13.066C69.07 13.234 69.0513 13.444 69.014 13.696C68.986 13.9387 68.9253 14.172 68.832 14.396H62.196C61.9813 14.396 61.7107 14.396 61.384 14.396C61.0573 14.396 60.7167 14.396 60.362 14.396C60.0167 14.3867 59.704 14.3773 59.424 14.368V11.876H68.972ZM69.518 28.494C69.518 29.3993 69.378 30.048 69.098 30.44C68.8273 30.832 68.3093 31.028 67.544 31.028H59.424V28.62C59.872 28.592 60.3153 28.564 60.754 28.536C61.1927 28.508 61.7013 28.494 62.28 28.494H69.518ZM83.562 18.484C83.562 17.7747 83.4453 17.07 83.212 16.37C82.988 15.67 82.5913 15.0913 82.022 14.634C81.4526 14.1673 80.664 13.934 79.656 13.934C78.1813 13.934 77.066 14.5827 76.31 15.88C75.5633 17.168 75.19 19.0533 75.19 21.536C75.19 23.8507 75.6006 25.6333 76.422 26.884C77.2433 28.1347 78.3773 28.76 79.824 28.76C80.7013 28.76 81.5506 28.578 82.372 28.214C83.1933 27.8407 84.01 27.3133 84.822 26.632C85.1486 26.8373 85.4566 27.1267 85.746 27.5C86.0353 27.864 86.2266 28.2187 86.32 28.564C85.8066 29.0773 85.186 29.5487 84.458 29.978C83.7393 30.398 82.9413 30.734 82.064 30.986C81.196 31.238 80.2813 31.364 79.32 31.364C77.9853 31.364 76.8513 31.0887 75.918 30.538C74.994 29.9873 74.2473 29.2453 73.678 28.312C73.1086 27.3693 72.6933 26.3147 72.432 25.148C72.18 23.972 72.054 22.7633 72.054 21.522C72.054 19.198 72.404 17.2987 73.104 15.824C73.8133 14.3493 74.7466 13.262 75.904 12.562C77.0706 11.862 78.3446 11.512 79.726 11.512C81.1073 11.512 82.302 11.7733 83.31 12.296C84.318 12.8093 85.0973 13.4813 85.648 14.312C86.1986 15.1333 86.474 16.02 86.474 16.972C86.474 17.476 86.3433 17.8867 86.082 18.204C85.8206 18.512 85.3866 18.666 84.78 18.666C84.556 18.666 84.3506 18.652 84.164 18.624C83.9866 18.5867 83.786 18.54 83.562 18.484ZM94.6504 22.404C94.5664 22.404 94.4124 22.404 94.1884 22.404C93.9737 22.3947 93.7544 22.39 93.5304 22.39C93.3157 22.3807 93.1571 22.376 93.0544 22.376C92.7744 22.376 92.4804 22.3807 92.1724 22.39C91.8737 22.3993 91.5797 22.404 91.2904 22.404V19.842C91.5797 19.842 91.8737 19.8467 92.1724 19.856C92.4804 19.8653 92.7744 19.87 93.0544 19.87C93.1571 19.87 93.3157 19.87 93.5304 19.87C93.7544 19.8607 93.9737 19.856 94.1884 19.856C94.4124 19.8467 94.5664 19.842 94.6504 19.842H99.3684C99.4617 19.842 99.6157 19.8467 99.8304 19.856C100.054 19.856 100.274 19.8607 100.488 19.87C100.712 19.87 100.871 19.87 100.964 19.87C101.254 19.87 101.548 19.8653 101.846 19.856C102.145 19.8467 102.439 19.842 102.728 19.842V22.404C102.439 22.404 102.145 22.3993 101.846 22.39C101.548 22.3807 101.254 22.376 100.964 22.376C100.871 22.376 100.712 22.3807 100.488 22.39C100.274 22.39 100.054 22.3947 99.8304 22.404C99.6157 22.404 99.4617 22.404 99.3684 22.404H94.6504ZM93.0824 31C92.8584 31.0373 92.6111 31.0653 92.3404 31.084C92.0697 31.1027 91.8131 31.112 91.5704 31.112C91.3651 31.112 91.1224 31.1027 90.8424 31.084C90.5624 31.0653 90.3151 31.0373 90.1004 31V11.876C90.3151 11.8293 90.5624 11.8013 90.8424 11.792C91.1224 11.7733 91.3651 11.764 91.5704 11.764C91.8131 11.764 92.0697 11.7733 92.3404 11.792C92.6111 11.8013 92.8584 11.8293 93.0824 11.876V17.798C93.0824 18.19 93.0777 18.54 93.0684 18.848C93.0591 19.1467 93.0544 19.4873 93.0544 19.87V22.376C93.0544 22.7493 93.0591 23.09 93.0684 23.398C93.0777 23.706 93.0824 24.056 93.0824 24.448V31ZM100.936 24.448C100.936 24.056 100.941 23.706 100.95 23.398C100.96 23.09 100.964 22.7493 100.964 22.376V19.87C100.964 19.4873 100.96 19.1467 100.95 18.848C100.941 18.54 100.936 18.19 100.936 17.798V11.876C101.16 11.8293 101.403 11.8013 101.664 11.792C101.935 11.7733 102.182 11.764 102.406 11.764C102.63 11.764 102.882 11.7733 103.162 11.792C103.442 11.8013 103.694 11.8293 103.918 11.876V31C103.685 31.0373 103.438 31.0653 103.176 31.084C102.915 31.1027 102.663 31.112 102.42 31.112C102.187 31.112 101.935 31.1027 101.664 31.084C101.403 31.0653 101.16 31.0373 100.936 31V24.448ZM110.969 21.424C110.969 22.2733 111.034 23.1413 111.165 24.028C111.296 24.9053 111.524 25.722 111.851 26.478C112.187 27.2247 112.663 27.8313 113.279 28.298C113.895 28.7553 114.693 28.984 115.673 28.984C116.653 28.984 117.446 28.7553 118.053 28.298C118.669 27.8313 119.14 27.2247 119.467 26.478C119.803 25.722 120.032 24.9053 120.153 24.028C120.284 23.1413 120.349 22.2733 120.349 21.424C120.349 20.5747 120.284 19.7113 120.153 18.834C120.032 17.9567 119.803 17.1447 119.467 16.398C119.14 15.642 118.669 15.0353 118.053 14.578C117.446 14.1207 116.653 13.892 115.673 13.892C114.693 13.892 113.895 14.1207 113.279 14.578C112.663 15.0353 112.187 15.642 111.851 16.398C111.524 17.1447 111.296 17.9567 111.165 18.834C111.034 19.7113 110.969 20.5747 110.969 21.424ZM107.847 21.424C107.847 19.5387 108.127 17.8493 108.687 16.356C109.256 14.8627 110.12 13.682 111.277 12.814C112.434 11.946 113.9 11.512 115.673 11.512C117.456 11.512 118.926 11.9507 120.083 12.828C121.24 13.696 122.099 14.8767 122.659 16.37C123.219 17.8633 123.499 19.548 123.499 21.424C123.499 23.3187 123.214 25.0173 122.645 26.52C122.076 28.0133 121.212 29.194 120.055 30.062C118.907 30.93 117.446 31.364 115.673 31.364C113.89 31.364 112.42 30.9253 111.263 30.048C110.106 29.1707 109.247 27.9853 108.687 26.492C108.127 24.9893 107.847 23.3 107.847 21.424Z" fill="#FFFFFF"/>
<path d="M128.84 29.264C128.887 28.8347 129.031 28.41 129.274 27.99C129.526 27.5607 129.801 27.2247 130.1 26.982C130.912 27.514 131.813 27.962 132.802 28.326C133.791 28.69 134.771 28.872 135.742 28.872C136.871 28.872 137.744 28.6247 138.36 28.13C138.985 27.6353 139.298 27.0053 139.298 26.24C139.298 25.5867 139.079 25.008 138.64 24.504C138.201 23.9907 137.571 23.5613 136.75 23.216L133.362 21.802C132.186 21.298 131.248 20.6587 130.548 19.884C129.857 19.1093 129.512 18.1247 129.512 16.93C129.512 15.9127 129.778 14.998 130.31 14.186C130.851 13.3647 131.598 12.716 132.55 12.24C133.502 11.7547 134.603 11.512 135.854 11.512C137.021 11.512 138.117 11.6613 139.144 11.96C140.171 12.2587 141.048 12.59 141.776 12.954C141.757 13.3833 141.65 13.8127 141.454 14.242C141.258 14.662 141.006 15.012 140.698 15.292C139.97 14.9187 139.167 14.606 138.29 14.354C137.422 14.102 136.624 13.976 135.896 13.976C134.86 13.976 134.043 14.228 133.446 14.732C132.858 15.236 132.564 15.8567 132.564 16.594C132.564 17.21 132.779 17.714 133.208 18.106C133.637 18.498 134.197 18.8387 134.888 19.128L138.234 20.514C139.027 20.85 139.741 21.2653 140.376 21.76C141.011 22.2547 141.51 22.8333 141.874 23.496C142.238 24.1587 142.42 24.91 142.42 25.75C142.42 26.814 142.168 27.7753 141.664 28.634C141.16 29.4833 140.399 30.1507 139.382 30.636C138.374 31.1213 137.1 31.364 135.56 31.364C134.403 31.364 133.227 31.1773 132.032 30.804C130.847 30.4307 129.783 29.9173 128.84 29.264ZM146.611 25.008V22.908H153.401V22.544C153.401 21.8907 153.307 21.2933 153.121 20.752C152.943 20.2013 152.649 19.7627 152.239 19.436C151.837 19.1093 151.301 18.946 150.629 18.946C149.677 18.946 148.963 19.3473 148.487 20.15C148.011 20.9527 147.773 22.0587 147.773 23.468V24.35C147.773 25.2273 147.861 26.0207 148.039 26.73C148.225 27.43 148.552 27.9853 149.019 28.396C149.485 28.7973 150.148 28.998 151.007 28.998C151.707 28.998 152.383 28.9 153.037 28.704C153.69 28.4987 154.311 28.242 154.899 27.934C155.141 28.1673 155.342 28.4613 155.501 28.816C155.669 29.1613 155.771 29.4833 155.809 29.782C155.146 30.2673 154.348 30.6547 153.415 30.944C152.491 31.224 151.539 31.364 150.559 31.364C149.448 31.364 148.519 31.168 147.773 30.776C147.035 30.384 146.447 29.8473 146.009 29.166C145.579 28.4753 145.267 27.696 145.071 26.828C144.884 25.96 144.791 25.0547 144.791 24.112C144.791 22.7213 145.005 21.4753 145.435 20.374C145.873 19.2727 146.527 18.4047 147.395 17.77C148.263 17.1353 149.341 16.818 150.629 16.818C151.842 16.818 152.859 17.084 153.681 17.616C154.511 18.148 155.137 18.8667 155.557 19.772C155.977 20.668 156.187 21.6713 156.187 22.782C156.187 23.23 156.168 23.6173 156.131 23.944C156.103 24.2613 156.051 24.616 155.977 25.008H146.611ZM161.03 17.056C161.637 17.056 162.057 17.238 162.29 17.602C162.533 17.966 162.654 18.47 162.654 19.114V31C162.467 31.0373 162.248 31.0653 161.996 31.084C161.744 31.1027 161.487 31.112 161.226 31.112C160.965 31.112 160.708 31.1027 160.456 31.084C160.204 31.0653 159.975 31.0373 159.77 31V17.238L159.952 17.056H161.03ZM170.802 28.046C170.802 28.5313 170.835 28.9933 170.9 29.432C170.975 29.8613 171.101 30.2393 171.278 30.566C171.063 30.7433 170.793 30.888 170.466 31C170.139 31.1213 169.803 31.182 169.458 31.182C168.889 31.182 168.487 31.028 168.254 30.72C168.03 30.412 167.918 29.9547 167.918 29.348V22.222C167.918 21.2793 167.797 20.598 167.554 20.178C167.311 19.7487 166.849 19.534 166.168 19.534C165.701 19.534 165.193 19.646 164.642 19.87C164.101 20.094 163.587 20.416 163.102 20.836C162.617 21.2467 162.225 21.7273 161.926 22.278V19.506C162.551 18.7873 163.317 18.1807 164.222 17.686C165.127 17.182 166.084 16.93 167.092 16.93C167.969 16.93 168.679 17.1353 169.22 17.546C169.761 17.9473 170.158 18.4933 170.41 19.184C170.671 19.8747 170.802 20.654 170.802 21.522V28.046ZM173.739 29.964C173.758 29.6467 173.86 29.292 174.047 28.9C174.234 28.4987 174.448 28.1813 174.691 27.948C175.279 28.2653 175.909 28.5547 176.581 28.816C177.253 29.068 177.934 29.194 178.625 29.194C179.39 29.194 179.997 29.0307 180.445 28.704C180.893 28.3773 181.122 27.9573 181.131 27.444C181.131 27.052 180.982 26.688 180.683 26.352C180.384 26.016 179.946 25.7453 179.367 25.54L177.743 24.938C177.099 24.7047 176.506 24.4107 175.965 24.056C175.433 23.7013 175.004 23.272 174.677 22.768C174.35 22.2547 174.187 21.648 174.187 20.948C174.187 20.0893 174.402 19.352 174.831 18.736C175.27 18.12 175.862 17.6487 176.609 17.322C177.365 16.986 178.21 16.818 179.143 16.818C179.899 16.818 180.702 16.916 181.551 17.112C182.41 17.308 183.128 17.546 183.707 17.826C183.716 18.0593 183.688 18.316 183.623 18.596C183.558 18.8667 183.455 19.1233 183.315 19.366C183.184 19.5993 183.035 19.7953 182.867 19.954C182.372 19.7207 181.798 19.5107 181.145 19.324C180.492 19.128 179.815 19.03 179.115 19.03C178.508 19.03 178.023 19.1793 177.659 19.478C177.295 19.7673 177.113 20.1593 177.113 20.654C177.113 21.046 177.253 21.3727 177.533 21.634C177.822 21.8953 178.256 22.1333 178.835 22.348L180.557 22.978C181.612 23.3607 182.466 23.888 183.119 24.56C183.782 25.232 184.113 26.1093 184.113 27.192C184.113 28.4893 183.609 29.5113 182.601 30.258C181.593 30.9953 180.268 31.364 178.625 31.364C177.645 31.364 176.735 31.224 175.895 30.944C175.064 30.664 174.346 30.3373 173.739 29.964ZM188.173 25.008V22.908H194.963V22.544C194.963 21.8907 194.87 21.2933 194.683 20.752C194.506 20.2013 194.212 19.7627 193.801 19.436C193.4 19.1093 192.863 18.946 192.191 18.946C191.239 18.946 190.525 19.3473 190.049 20.15C189.573 20.9527 189.335 22.0587 189.335 23.468V24.35C189.335 25.2273 189.424 26.0207 189.601 26.73C189.788 27.43 190.114 27.9853 190.581 28.396C191.048 28.7973 191.71 28.998 192.569 28.998C193.269 28.998 193.946 28.9 194.599 28.704C195.252 28.4987 195.873 28.242 196.461 27.934C196.704 28.1673 196.904 28.4613 197.063 28.816C197.231 29.1613 197.334 29.4833 197.371 29.782C196.708 30.2673 195.91 30.6547 194.977 30.944C194.053 31.224 193.101 31.364 192.121 31.364C191.01 31.364 190.082 31.168 189.335 30.776C188.598 30.384 188.01 29.8473 187.571 29.166C187.142 28.4753 186.829 27.696 186.633 26.828C186.446 25.96 186.353 25.0547 186.353 24.112C186.353 22.7213 186.568 21.4753 186.997 20.374C187.436 19.2727 188.089 18.4047 188.957 17.77C189.825 17.1353 190.903 16.818 192.191 16.818C193.404 16.818 194.422 17.084 195.243 17.616C196.074 18.148 196.699 18.8667 197.119 19.772C197.539 20.668 197.749 21.6713 197.749 22.782C197.749 23.23 197.73 23.6173 197.693 23.944C197.665 24.2613 197.614 24.616 197.539 25.008H188.173Z" fill="#FFFFFF"/>
<path d="M2.5155 0C4.31129 1.57383 6.23947 2.98984 8.27861 4.23228C13.2673 7.28313 15.8571 7.37678 22.2722 10.0278C29.0474 12.8265 32.4368 14.2241 35.2752 17.6495C36.3557 18.9678 39.4102 22.7571 39.4498 28.3077C39.4532 31.419 38.5509 34.4641 36.8528 37.0712C32.0622 44.3939 22.9169 44.873 21.5013 44.9666C18.0168 45.1632 14.5382 44.4886 11.3799 43.0036C13.6637 43.8222 16.1327 43.977 18.5009 43.4502C19.7436 43.1513 21.7859 42.6038 22.7728 40.8424C23.8966 38.8361 23.0178 36.5669 22.8449 36.1167C22.6143 35.5151 22.1245 34.5642 20.6117 33.1487C19.586 32.2162 18.4699 31.3885 17.2799 30.6777C16.9593 30.476 16.9449 30.476 15.695 29.7412C15.5113 29.6368 13.3141 28.3437 11.6284 27.3279C9.70138 26.1645 8.74686 25.5846 8.12733 25.1668C6.6781 24.2326 5.34765 23.1259 4.16519 21.871C3.17384 20.8005 2.32624 19.6054 1.64383 18.3159C0.163437 15.4343 0.0553783 12.7473 0.00495108 11.0183C-0.0738167 7.19532 0.788326 3.41154 2.5155 0Z" fill="url(#paint1_linear_453_69)"/>
<path d="M2.51554 0C0.791427 3.37227 -0.0675662 7.12015 0.0157907 10.9067C0.0698198 12.7076 0.188684 15.2578 1.55382 18.0781C3.68977 22.4761 7.60148 24.8642 10.2921 26.5067C10.9549 26.9101 14.0526 28.7579 16.718 30.3283L17.2799 30.6597C17.893 29.0944 18.1928 27.4239 18.1624 25.7431C18.1075 23.9745 17.701 22.2345 16.9665 20.6247C15.6014 17.6243 13.9877 17.1308 8.98103 12.5131C4.08599 8.00712 3.16029 6.21695 2.71725 4.56006C2.3333 3.07065 2.26459 1.51749 2.51554 0V0Z" fill="#8B8EFB" fill-opacity="0.7"/>
<defs>
<linearGradient id="paint0_linear_453_69" x1="12.2011" y1="46.0043" x2="47.5145" y2="10.6945" gradientUnits="userSpaceOnUse">
<stop stop-color="#6059C9"/>
<stop offset="0.99" stop-color="#8B8EFB"/>
</linearGradient>
<linearGradient id="paint1_linear_453_69" x1="-2.21024" y1="4.72935" x2="33.7155" y2="40.6551" gradientUnits="userSpaceOnUse">
<stop stop-color="#6059C9"/>
<stop offset="0.31" stop-color="#5E57C6"/>
<stop offset="0.52" stop-color="#5950BD"/>
<stop offset="0.69" stop-color="#4F45AE"/>
<stop offset="0.85" stop-color="#423599"/>
<stop offset="0.99" stop-color="#322380"/>
</linearGradient>
</defs>
</svg>
